:SAMPLES-PER-SECOND 30
:FULLY-SPECIFIED
:DEGREES
110
root  13.4427 38.1386 5.32719 107.283 -89.1406 -112.771
RightUpLeg  -18.5605 -5.67481 1.92986
RightLeg  21.0066 0.888807 0.180189
RightFoot  2.36073 0.429392 -3.43564
RightToes  -1.74624e-010 0 -3.6325e-017
Spine  3.4735 -1.45388 7.61169
Spine1  8.47674 -0.629406 -1.53476
HEad  -5.21799 -7.41115 -2.54394
LeftShoulder1  -0.521212 4.78856 -34.4046
LeftArm  -0.44268 0.706125 -44.8445
LeftForeArm  37.3682 -8.68869 -9.4778
LeftHand  -0.0457255 7.79113 -0.0280308
RightShoulder  -1.09423 -6.39025 31.3548
RightArm  15.7839 -2.1994 44.8086
RightForeArm  19.8229 9.10836 7.40183
RightHand  -0.0147009 3.17413 -0.43444
LeftUpLeg  15.1448 7.43695 1.90305
LeftLeg  27.7358 -1.45384 -0.504261
LeftFoot  -13.5924 -0.068469 -8.09836
LeftToes  2.27646e-009 -8.13696e-011 -1.44715e-011
111
root  12.3804 38.2035 5.1348 44.2682 -87.789 -49.4112
RightUpLeg  -17.6158 -6.78809 2.9701
RightLeg  22.3014 0.413035 0.0365365
RightFoot  0.0612174 0.392462 -3.91251
RightToes  -1.74624e-010 0 -3.6325e-017
Spine  3.68217 -1.84253 9.2116
Spine1  7.72029 -0.782614 -1.30636
HEad  -5.0826 -8.6276 -1.75652
LeftShoulder1  -0.48329 4.69922 -34.2684
LeftArm  -4.48919 2.95283 -43.7007
LeftForeArm  42.8593 -3.566 -9.02392
LeftHand  -0.116802 8.9936 -2.10284
RightShoulder  -1.18028 -6.5932 31.6716
RightArm  16.0628 -1.81117 44.5536
RightForeArm  18.9954 10.2205 7.12511
RightHand  -0.0162571 3.04267 -0.458041
LeftUpLeg  10.4089 6.47841 4.07079
LeftLeg  37.0297 -2.27798 -1.46684
LeftFoot  -6.17276 0.486705 -10.2726
LeftToes  2.27646e-009 -8.13696e-011 -1.44715e-011
112
root  11.368 38.2759 4.96841 44.3295 -86.1527 -49.2747
RightUpLeg  -16.2487 -7.11251 4.03608
RightLeg  22.8404 -0.586013 -0.297249
RightFoot  -2.00696 0.306661 -3.91809
RightToes  -1.74624e-010 0 -3.6325e-017
Spine  3.5651 -1.80924 10.8083
Spine1  7.86387 -0.582377 -1.03337
HEad  -5.94799 -10.1086 -1.1878
LeftShoulder1  -0.472062 4.67044 -34.3029
LeftArm  -5.06949 4.85695 -42.7045
LeftForeArm  46.3559 -1.65152 -8.41427
LeftHand  -0.190378 9.82475 -3.40058
RightShoulder  -1.15014 -6.5349 31.4079
RightArm  16.9405 -1.57896 44.5469
RightForeArm  15.7575 12.1156 6.72785
RightHand  -0.037288 4.16727 -0.718163
LeftUpLeg  5.06679 5.34973 5.81833
LeftLeg  46.097 -1.68573 -1.42147
LeftFoot  3.14595 1.14115 -9.23469
LeftToes  2.27646e-009 -8.13696e-011 -1.44715e-011
113
root  10.4782 38.3002 4.82997 37.7762 -84.8255 -42.8264
RightUpLeg  -14.9006 -7.54581 4.53869
RightLeg  23.6466 -1.53915 -0.56366
RightFoot  -4.11478 0.222246 -3.96
RightToes  -1.74624e-010 0 -3.6325e-017
Spine  3.86936 -1.78109 11.9368
Spine1  8.19431 -0.303718 -0.652617
HEad  -6.73028 -11.4785 -0.780381
LeftShoulder1  -0.435776 4.58287 -34.2296
LeftArm  -4.6104 6.88874 -41.3884
LeftForeArm  48.8125 -2.22862 -8.73078
LeftHand  -0.240094 9.72977 -4.77044
RightShoulder  -1.13676 -6.51131 31.2606
RightArm  18.7375 -0.445562 44.3854
RightForeArm  12.5573 13.7503 6.52134
RightHand  -0.0979331 4.37401 -1.44973
LeftUpLeg  0.142278 4.27565 6.78882
LeftLeg  53.4896 -0.617483 -0.464036
LeftFoot  8.02366 1.20335 -7.25863
LeftToes  2.27646e-009 -8.13696e-011 -1.44715e-011
114
root  9.54738 38.4626 4.70916 33.5374 -84.7057 -39.1879
RightUpLeg  -12.3102 -7.52787 4.23257
RightLeg  23.1859 -1.98552 -0.528687
RightFoot  -5.60357 0.162002 -3.97694
RightToes  -1.74624e-010 0 -3.6325e-017
Spine  4.8216 -1.54356 12.7024
Spine1  7.84148 0.418911 -1.52168
HEad  -7.11015 -12.1224 0.258405
LeftShoulder1  -0.462078 4.65974 -33.8224
LeftArm  -4.0421 9.57057 -39.9698
LeftForeArm  48.6093 -4.26214 -9.06168
LeftHand  -0.191016 8.90543 -4.44544
RightShoulder  -1.15146 -6.51208 31.7346
RightArm  21.0706 1.49995 44.0073
RightForeArm  11.6392 14.4851 6.62821
RightHand  -0.09779 3.77885 -1.49382
LeftUpLeg  -3.39666 3.77437 6.8428
LeftLeg  58.2552 -0.605309 -0.523214
LeftFoot  5.11059 0.907385 -6.5025
LeftToes  2.27646e-009 -8.13696e-011 -1.44715e-011
115
root  8.60898 38.6316 4.62618 29.6361 -84.9166 -35.2777
RightUpLeg  -10.1781 -7.50451 3.73896
RightLeg  22.2926 -2.07872 -0.322461
RightFoot  -6.96285 0.0976688 -3.7871
RightToes  -1.74624e-010 0 -3.6325e-017
Spine  4.56794 -1.00673 13.366
Spine1  8.05086 1.26796 -2.53471
HEad  -6.74445 -12.6368 0.158233
LeftShoulder1  -0.486311 4.72505 -33.6675
LeftArm  -2.69771 11.8797 -38.4938
LeftForeArm  45.049 -6.62466 -9.34659
LeftHand  -0.147647 8.60077 -3.39038
RightShoulder  -1.14207 -6.50774 31.4746
RightArm  22.4624 3.33356 44.4168
RightForeArm  11.7169 14.7015 6.76651
RightHand  -0.136058 3.80105 -1.97426
LeftUpLeg  -7.15032 3.13251 6.18864
LeftLeg  60.2 -0.485875 -0.364767
LeftFoot  3.80169 0.772268 -5.97379
LeftToes  2.27646e-009 -8.13696e-011 -1.44715e-011
